<svg id="Icon_ionic-ios-chatbubbles" data-name="Icon ionic-ios-chatbubbles" xmlns="http://www.w3.org/2000/svg" width="107.008" height="107.008" viewBox="0 0 107.008 107.008">
  <path id="Path_940" data-name="Path 940" d="M89.127,73.5a6.232,6.232,0,0,1,.849-3.138,8.661,8.661,0,0,1,.54-.8,41.68,41.68,0,0,0,7.1-23.228C97.693,22.616,77.681,3.375,52.935,3.375c-21.582,0-39.588,14.688-43.806,34.186a41.337,41.337,0,0,0-.952,8.8,43.634,43.634,0,0,0,43.986,43.5A52.975,52.975,0,0,0,64.3,87.875c2.907-.8,5.788-1.852,6.534-2.135a6.8,6.8,0,0,1,2.392-.437,6.688,6.688,0,0,1,2.6.514l14.585,5.17a3.478,3.478,0,0,0,1,.257,2.047,2.047,0,0,0,2.058-2.058,3.3,3.3,0,0,0-.129-.695Z" transform="translate(9.391 -3.375)" fill="#c94f9a"/>
  <path id="Path_941" data-name="Path 941" d="M72.956,66.663c-.926.257-2.109.54-3.4.823a47.475,47.475,0,0,1-8.746,1.158,43.634,43.634,0,0,1-43.986-43.5,48.632,48.632,0,0,1,.386-5.5c.154-1.106.334-2.212.592-3.293.257-1.158.566-2.315.9-3.447l-2.058,1.826A38.281,38.281,0,0,0,3.375,43.513,37.854,37.854,0,0,0,9.754,64.605c.592.9.926,1.595.823,2.058S7.516,82.612,7.516,82.612a2.063,2.063,0,0,0,.695,1.981,2.1,2.1,0,0,0,1.312.463,1.845,1.845,0,0,0,.746-.154L24.7,79.216a4.019,4.019,0,0,1,1.466-.283,4.06,4.06,0,0,1,1.621.334A43.293,43.293,0,0,0,43.4,82.354,40.4,40.4,0,0,0,74.293,68.181s.823-1.132,1.775-2.469C75.116,66.046,74.036,66.38,72.956,66.663Z" transform="translate(-3.375 21.952)" fill="#c94f9a"/>
</svg>
