<svg xmlns="http://www.w3.org/2000/svg" width="107.309" height="75.116" viewBox="0 0 107.309 75.116">
  <path id="Icon_awesome-wifi" data-name="Icon awesome-wifi" d="M106.456,22.853a77.96,77.96,0,0,0-105.6,0,2.665,2.665,0,0,0-.059,3.853l5.741,5.7a2.723,2.723,0,0,0,3.756.064,64.329,64.329,0,0,1,86.728,0,2.724,2.724,0,0,0,3.756-.064l5.741-5.7a2.667,2.667,0,0,0-.06-3.853ZM53.654,55.9A10.731,10.731,0,1,0,64.385,66.635,10.73,10.73,0,0,0,53.654,55.9ZM87.636,41.889a51.474,51.474,0,0,0-67.964,0,2.651,2.651,0,0,0-.1,3.882l5.775,5.7a2.737,2.737,0,0,0,3.7.134,37.764,37.764,0,0,1,49.21,0,2.735,2.735,0,0,0,3.7-.134l5.775-5.7A2.65,2.65,0,0,0,87.636,41.889Z" transform="translate(0 -2.25)" fill="#ce5193"/>
</svg>
